<?xml version="1.0" encoding="UTF-8"?>
<svg version="1.1" xmlns="http://www.w3.org/2000/svg" width="640" height="640">
<path d="M0 0 C211.2 0 422.4 0 640 0 C640 211.2 640 422.4 640 640 C428.8 640 217.6 640 0 640 C0 428.8 0 217.6 0 0 Z " fill="#FDFDFD" transform="translate(0,0)"/>
<path d="M0 0 C0.84492524 -0.00523668 1.68985047 -0.01047336 2.56037951 -0.01586872 C5.37269928 -0.03078993 8.18483585 -0.03157214 10.99719238 -0.03224182 C13.02165023 -0.03986882 15.04610519 -0.04829724 17.07055664 -0.0574646 C22.55859113 -0.0793682 28.04656991 -0.08820341 33.53464317 -0.09329104 C36.96943695 -0.09694072 40.40421627 -0.10318409 43.83900452 -0.11029243 C55.83965695 -0.13477644 67.84026625 -0.14783573 79.84094238 -0.15138245 C90.99716224 -0.15501275 102.15310616 -0.18487479 113.30924177 -0.22678703 C122.9095832 -0.26157959 132.50983361 -0.27693247 142.1102376 -0.27762848 C147.83401885 -0.27841849 153.55751907 -0.28702945 159.28123474 -0.31562614 C164.67240481 -0.34195929 170.06306393 -0.34392734 175.45426941 -0.3279705 C177.4213371 -0.32616786 179.3884352 -0.33273823 181.35543823 -0.34878922 C205.73696356 -0.53544507 224.65534404 7.16357589 242.43664551 24.08665466 C260.16726138 42.28897706 263.7181834 63.8311462 263.6373291 88.10227966 C263.64140205 90.17027563 263.64674797 92.23826942 263.65325928 94.30625916 C263.66685259 99.88475963 263.66166738 105.46309232 263.65212202 111.04159546 C263.64448383 116.90199712 263.65158252 122.7623852 263.65628052 128.62278748 C263.66172601 138.46102964 263.65457819 148.29920406 263.64025879 158.13743591 C263.62393466 169.48348037 263.62922402 180.82936305 263.64573801 192.17540359 C263.65938732 201.94738771 263.66125572 211.71932336 263.653422 221.49131393 C263.64876439 227.31434019 263.64806771 233.13729062 263.65803146 238.96031189 C263.66674913 244.43683378 263.6605921 249.91314872 263.64334869 255.38964844 C263.63940937 257.38979754 263.64047363 259.38996431 263.64713669 261.3901062 C263.71325788 283.26932299 259.6511275 300.55271854 246.24914551 318.27415466 C245.69484863 319.0153656 245.14055176 319.75657654 244.56945801 320.52024841 C236.33818895 330.69671788 225.29218624 337.52944883 213.24914551 342.27415466 C212.47055176 342.58997498 211.69195801 342.90579529 210.88977051 343.23118591 C198.53191972 347.8090029 185.37710033 347.56897237 172.40222168 347.54881287 C170.53466083 347.5531689 168.66710176 347.558355 166.79954529 347.56430054 C161.76219097 347.57760629 156.72491207 347.57827863 151.68754363 347.57573724 C147.46582073 347.57466172 143.24411273 347.5795657 139.02239305 347.58434266 C129.05361348 347.59540886 119.0848716 347.59589164 109.11608887 347.58982849 C98.86925873 347.58379157 88.62256601 347.59609926 78.3757593 347.61739856 C69.54388886 347.63507434 60.71206192 347.6410065 51.88017446 347.63776082 C46.6204433 347.63595723 41.36081016 347.63849101 36.1010952 347.65247536 C31.15070219 347.6651467 26.20052175 347.66302256 21.25013161 347.65006447 C19.44593862 347.64771921 17.64173022 347.65035862 15.83755493 347.65868759 C-6.40426228 347.75386654 -25.54460001 343.77287294 -43.75085449 330.27415466 C-44.80272949 329.51102966 -45.85460449 328.74790466 -46.93835449 327.96165466 C-62.64870533 312.94954164 -72.4872206 293.07604204 -73.0951221 271.25039673 C-73.16075074 266.7097465 -73.15431512 262.17061078 -73.13903809 257.62962341 C-73.14311116 255.5813316 -73.14845714 253.53304199 -73.15496826 251.48475647 C-73.16856019 245.95997275 -73.16337696 240.43535846 -73.15383101 234.91057205 C-73.14619208 229.10622478 -73.15329171 223.30189122 -73.1579895 217.49754333 C-73.16343478 207.75345782 -73.15628773 198.00944071 -73.14196777 188.2653656 C-73.12564368 177.02838375 -73.13093305 165.79156526 -73.14744699 154.55458736 C-73.16109691 144.8760206 -73.16296441 135.19750277 -73.15513098 125.51892948 C-73.15047371 119.75179432 -73.14977577 113.98473572 -73.15974045 108.21760559 C-73.168459 102.79361263 -73.16229949 97.36982859 -73.14505768 91.945858 C-73.14111882 89.96505962 -73.14218179 87.98424339 -73.14884567 86.0034523 C-73.22671766 60.48808894 -67.09882678 39.8696544 -48.75085449 21.27415466 C-35.68116395 8.38822076 -18.56588353 -0.0578482 0 0 Z " fill="#F8F7F9" transform="translate(224.7508544921875,106.72584533691406)"/>
<path d="M0 0 C2.41566221 2.41566221 3.05815057 4.42289787 4.25 7.625 C4.68957031 8.79675781 5.12914062 9.96851563 5.58203125 11.17578125 C5.8135791 11.80049316 6.04512695 12.42520508 6.28369141 13.06884766 C6.99994919 14.99986301 7.72344486 16.92801164 8.44921875 18.85546875 C9.4589065 21.53741015 10.46341679 24.22121383 11.46484375 26.90625 C12.46322986 29.5787553 13.47641237 32.24480656 14.50390625 34.90625 C17.63540395 43.05895987 20.43325221 51.26820754 22.99609375 59.6184082 C23.9307943 62.65844427 24.85744093 65.64626201 26.046875 68.59765625 C27.2998331 71.75572688 28.13488341 74.96526047 29 78.25 C29.495 80.11398438 29.495 80.11398438 30 82.015625 C30.33542139 83.34322419 30.66868218 84.67137077 31 86 C31.27360352 87.05537964 31.27360352 87.05537964 31.55273438 88.13208008 C34.68649243 100.96549812 34.93555356 115.03378134 28.8984375 126.98046875 C22.80611268 136.67052448 14.07943375 145.24901578 2.8359375 148.5234375 C-8.50729326 150.42960024 -20.02390044 150.23869783 -30 144 C-40.06797239 136.5852682 -47.91498931 126.5466433 -50 114 C-51.15774808 99.68947451 -47.15564377 89.86790482 -38 79 C-35.76111695 76.55273455 -33.47577936 74.15102531 -31.1875 71.75 C-11.24459424 50.77106455 -1.06412917 29.15713935 0 0 Z " fill="#FCC8BA" transform="translate(383,175)"/>
<path d="M0 0 C0.969375 0.763125 1.93875 1.52625 2.9375 2.3125 C3.63875 2.8590625 4.34 3.405625 5.0625 3.96875 C13.43010898 10.94175748 19.50679544 19.60143242 25.9375 28.3125 C38.73307216 45.49462415 51.9678822 58.22549177 73.1953125 63.91796875 C98.10266796 67.50150565 118.2861978 59.41813409 138.9375 46.3125 C130.39174885 66.63883464 103.17582077 80.27714556 83.9375 88.3125 C83.29619141 88.58642578 82.65488281 88.86035156 81.99414062 89.14257812 C65.74247718 95.86217783 46.28077629 95.69133026 29.9375 89.3125 C22.02777952 85.83592585 15.42212649 80.97403496 8.9375 75.3125 C8.29941406 74.76980469 7.66132813 74.22710937 7.00390625 73.66796875 C-3.48812918 64.06390068 -8.21585647 49.88454628 -12 36.5625 C-14.63127548 27.88243586 -18.23648898 21.72845892 -26.23046875 17.1875 C-32.36004438 14.25994149 -39.87642321 14.32200486 -46.3125 16.375 C-50.24251421 18.04424315 -52.87351961 20.76061497 -55.71484375 23.88671875 C-56.38193359 24.59248047 -56.38193359 24.59248047 -57.0625 25.3125 C-57.3925 25.3125 -57.7225 25.3125 -58.0625 25.3125 C-57.54002954 15.90803171 -54.20363804 8.97624303 -47.375 2.4375 C-33.45140563 -9.08055391 -15.43707835 -8.50614521 0 0 Z " fill="#C4E7D2" transform="translate(280.0625,317.6875)"/>
<path d="M0 0 C4.32559787 4.05374883 7.74613884 8.4957264 11.1875 13.3125 C11.75339844 14.10213135 12.31929687 14.8917627 12.90234375 15.70532227 C20.61030698 26.56309086 28.07888776 37.56472792 33 50 C33.35578125 50.87785156 33.7115625 51.75570312 34.078125 52.66015625 C43.22258739 76.37434044 43.80607524 100.91262837 33.5546875 124.296875 C29.80581656 132.00385618 25.79108365 138.5993286 20 145 C19.33484375 145.75796875 18.6696875 146.5159375 17.984375 147.296875 C4.67185604 161.59550647 -13.9310879 169.60353502 -33.28125 171.28515625 C-50.03040765 171.75266915 -64.30305086 166.61489749 -76.6875 155.375 C-83.95996238 148.4971925 -89.78834029 140.66751171 -95.453125 132.453125 C-102.60397407 122.12240033 -110.30535474 112.89210472 -121 106 C-117.720716 104.9019592 -115.86102042 105.09184532 -112.625 106.25 C-111.53058594 106.62898438 -111.53058594 106.62898438 -110.4140625 107.015625 C-104.47088063 109.43905838 -99.36010122 112.65696585 -94.125 116.3125 C-93.4139209 116.80379395 -92.7028418 117.29508789 -91.97021484 117.80126953 C-88.45155109 120.24373119 -84.99537345 122.72980936 -81.625 125.375 C-66.87328174 136.62521151 -47.09331756 139.59019511 -29 138 C-24.49513456 137.03856557 -20.28321867 135.68520079 -16 134 C-14.89398438 133.566875 -14.89398438 133.566875 -13.765625 133.125 C0.47841218 126.74367134 9.45610374 114.18931325 15.80859375 100.3984375 C26.59808101 69.62186727 13.01161764 35.76025347 1.82788086 6.94628906 C0 2.20547269 0 2.20547269 0 0 Z " fill="#F6E9D6" transform="translate(403,205)"/>
<path d="M0 0 C0.66 0 1.32 0 2 0 C2.43193151 15.47422305 2.47283619 29.97930409 -5 44 C-5.44730469 44.886875 -5.89460938 45.77375 -6.35546875 46.6875 C-11.89972796 56.98202574 -19.70858016 65.52850834 -27.78125 73.90625 C-39.41301597 86.11242417 -46.45262633 99.39239766 -46.27734375 116.4921875 C-45.22704682 129.7762247 -39.00343935 141.13990913 -29.00390625 149.7109375 C-19.2472231 157.72595971 -10.38206981 159.76016165 2 161 C1.67 161.66 1.34 162.32 1 163 C-3.08308236 163.11800816 -7.16571576 163.18784785 -11.25 163.25 C-12.38953125 163.28351563 -13.5290625 163.31703125 -14.703125 163.3515625 C-31.05487569 163.53737785 -46.06757049 156.56971391 -57.84765625 145.32421875 C-68.75520086 133.54565424 -71.61762911 121.76057902 -71.328125 106.1484375 C-70.49678181 87.5249873 -56.95257421 71.39461717 -44 59 C-42.74906356 57.89322102 -41.49076036 56.79473183 -40.2265625 55.703125 C-22.31233341 40.21571081 -5.94490466 23.5710255 0 0 Z " fill="#B4E1CE" transform="translate(373,170)"/>
<path d="M0 0 C7.43526815 -0.11695927 13.85730883 1.76101023 20.75 4.3125 C21.95523315 4.75638062 21.95523315 4.75638062 23.18481445 5.20922852 C28.08116696 7.08325367 32.51563708 9.28420267 37 12 C36.12596154 18.40961538 36.12596154 18.40961538 35.48828125 21.3984375 C30.72323005 44.9871307 35.15457535 66.30480178 46.1875 87.25 C46.52023926 87.88204346 46.85297852 88.51408691 47.19580078 89.1652832 C48.51563341 91.59248921 49.68610456 93.7095402 51.7265625 95.59765625 C53.63576918 97.70012618 53.2954424 99.41697842 53.1875 102.1875 C53.14689453 103.53908203 53.14689453 103.53908203 53.10546875 104.91796875 C53.07066406 105.60503906 53.03585937 106.29210937 53 107 C38.91233569 103.11374778 28.11621393 95.25190085 18 85 C17.31035156 84.3090625 16.62070312 83.618125 15.91015625 82.90625 C11.17799589 77.8530897 8.01359166 72.20211477 5 66 C4.45988281 64.89140625 3.91976562 63.7828125 3.36328125 62.640625 C-5.030422 44.34926198 -6.43686313 19.3105894 0 0 Z " fill="#FDD2B7" transform="translate(242,181)"/>
<path d="M0 0 C10.56298771 6.44898197 18.18801682 16.20564776 24.3125 26.75 C34.9262403 44.50948164 48.42861967 59.13062128 68.875 65 C93.52086748 69.67263658 115.31486241 64.28333722 136.0625 50.875 C139.93378461 48.16510077 143.47817096 45.14716637 147 42 C147.66 42.33 148.32 42.66 149 43 C135.63370243 59.20041224 118.18437474 69.98717743 99 78 C98.35869141 78.27392578 97.71738281 78.54785156 97.05664062 78.83007812 C80.80497718 85.54967783 61.34327629 85.37883026 45 79 C37.09027952 75.52342585 30.48462649 70.66153496 24 65 C23.36191406 64.45730469 22.72382813 63.91460937 22.06640625 63.35546875 C11.57437082 53.75140068 6.84664353 39.57204628 3.0625 26.25 C0.43122452 17.56993586 -3.17398898 11.41595892 -11.16796875 6.875 C-16.77137156 4.19874791 -23.43249243 3.99900277 -29.39453125 5.671875 C-31.27736613 6.41243343 -33.1403504 7.20300731 -35 8 C-35.99 8 -36.98 8 -38 8 C-26.84629036 -2.81940226 -14.78376935 -6.58147871 0 0 Z " fill="#A2DAC8" transform="translate(265,328)"/>
<path d="M0 0 C0.36351562 1.03898438 0.72703125 2.07796875 1.1015625 3.1484375 C9.36062133 26.26547376 23.74716201 43.84117816 45.61328125 55.37890625 C48.58035401 56.72278468 51.49600079 57.85300023 54.625 58.765625 C61.28655486 60.89577336 61.28655486 60.89577336 63.5546875 64.40625 C64.61334545 66.94702907 65.48646834 69.295714 66 72 C65.67 72.66 65.34 73.32 65 74 C63.20963542 73.28385417 61.41927083 72.56770833 59.62890625 71.8515625 C51.73857144 69.29570368 43.99693146 68.61634901 35.75 68.125 C13.95548259 66.57209706 -3.92675672 58.16850804 -18.875 42 C-27.63939627 31.726715 -34.14467982 20.97644353 -38 8 C-25.36360299 1.98702848 -13.92662051 -0.07423572 0 0 Z " fill="#FCC6D4" transform="translate(235,234)"/>
<path d="M0 0 C0.33 0 0.66 0 1 0 C1.84699561 17.22224417 -6.70000028 32.49005767 -18 45 C-18.66386719 45.75667969 -19.32773437 46.51335937 -20.01171875 47.29296875 C-33.32715498 61.59291043 -51.92716032 69.60319369 -71.28125 71.28515625 C-88.03040765 71.75266915 -102.30305086 66.61489749 -114.6875 55.375 C-121.95996238 48.4971925 -127.78834029 40.66751171 -133.453125 32.453125 C-140.60397407 22.12240033 -148.30535474 12.89210472 -159 6 C-155.720716 4.9019592 -153.86102042 5.09184532 -150.625 6.25 C-149.53058594 6.62898438 -149.53058594 6.62898438 -148.4140625 7.015625 C-142.50229272 9.42624957 -137.39903156 12.61809586 -132.1875 16.25 C-131.47682373 16.74234131 -130.76614746 17.23468262 -130.03393555 17.74194336 C-123.83503922 22.06281576 -117.90343429 26.65359779 -112.02734375 31.40234375 C-94.45257487 45.42496358 -78.46253649 50.83367645 -56 49 C-51.34959301 48.20115708 -47.3156565 46.88564445 -43 45 C-41.85402344 44.525625 -40.70804687 44.05125 -39.52734375 43.5625 C-21.7433033 35.51227059 -11.49498023 21.49083083 -2.8203125 4.5 C-1 1 -1 1 0 0 Z " fill="#FBBCBB" transform="translate(441,305)"/>
<path d="M0 0 C13.8837803 5.65879197 24.43968698 24.20085332 30.6875 37 C31.0390918 37.70600342 31.39068359 38.41200684 31.75292969 39.1394043 C32.06520508 39.81527588 32.37748047 40.49114746 32.69921875 41.1875 C32.97596436 41.77917969 33.25270996 42.37085938 33.5378418 42.98046875 C34.23418707 46.02334678 33.87629376 47.99934354 33 51 C31.27854229 53.17057341 29.656324 54.97655593 27.6796875 56.87890625 C27.14280304 57.41345932 26.60591858 57.94801239 26.05276489 58.49876404 C24.91699923 59.6248136 23.77523466 60.7448407 22.62792969 61.85913086 C20.88942064 63.54848707 19.17005115 65.25553796 17.453125 66.96679688 C16.34222691 68.06359605 15.23027991 69.15933405 14.1171875 70.25390625 C13.60960907 70.75612198 13.10203064 71.25833771 12.57907104 71.77577209 C8.9662566 75.27231466 5.14541058 78.15339817 1 81 C0.47792969 79.98421875 -0.04414063 78.9684375 -0.58203125 77.921875 C-8.04523042 63.8031002 -17.29557009 53.7310527 -30 44 C-29.47003461 38.65894252 -27.63048838 34.87497619 -25 30.3125 C-24.59700684 29.60843018 -24.19401367 28.90436035 -23.77880859 28.17895508 C-17.4238306 17.34632533 -8.97201363 8.67015149 0 0 Z " fill="#FCC5D3" transform="translate(319,147)"/>
<path d="M0 0 C7.77604705 5.12512192 10.85336144 11.597733 13.40087891 20.27514648 C18.91677038 39.03232429 27.81151517 55.04093926 44.75 65.8125 C48.68840208 67.95335053 52.68096282 69.93289399 56.75 71.8125 C56.75 72.1425 56.75 72.4725 56.75 72.8125 C50.41433377 72.23710516 44.5074987 71.17278464 38.375 69.5 C37.5399292 69.27344727 36.7048584 69.04689453 35.84448242 68.81347656 C13.61935836 62.68866344 -8.70183136 50.9581339 -21.91015625 31.34765625 C-25.36401429 25.257706 -26.24477082 19.7431011 -25.25 12.8125 C-23.24953321 7.1269628 -19.62234241 3.7235536 -15 0 C-9.92597551 -2.19105603 -5.13632522 -1.87673422 0 0 Z " fill="#FBC1BA" transform="translate(250.25,340.1875)"/>
<path d="M0 0 C2.90330029 2.73251792 5.37414443 5.43825699 7.6875 8.6875 C17.64315707 22.0961318 30.6754 30.77633592 46 37 C46 37.66 46 38.32 46 39 C45.09121094 39.29390625 45.09121094 39.29390625 44.1640625 39.59375 C31.59612396 44.0795373 24.5340464 51.86998577 18.1875 63.25 C15.87352218 68.60868548 15.73170341 74.05865301 15.4375 79.8125 C15.39431641 80.60076172 15.35113281 81.38902344 15.30664062 82.20117188 C15.20121679 84.13394215 15.10016906 86.06695026 15 88 C3.29701925 77.53449455 -1.93521965 55.02911276 -3 40 C-3.54084564 26.82900193 -3.95206923 12.64340847 0 0 Z " fill="#B7E2CF" transform="translate(200,267)"/>
<path d="M0 0 C27 0 27 0 36 4 C40.80787898 9.04827293 41.29958827 12.45649752 41.2109375 19.23828125 C40.93449406 22.85764255 40.14647854 25.06647933 38 28 C32.84210526 32 32.84210526 32 30 32 C33.39695088 38.46727186 37.27381568 44.48687186 41.42578125 50.49609375 C43 53 43 53 43 55 C39.864491 55.52062759 37.1200091 55.6795996 34 55 C31.33422186 52.63465439 29.77351118 49.78635919 28.0625 46.6875 C27.36157227 45.50897461 27.36157227 45.50897461 26.64648438 44.30664062 C25.78061084 42.84695425 24.92815744 41.37915988 24.09399414 39.90112305 C23.13038365 38.22657832 22.07168382 36.60752574 21 35 C16.67503241 34.27175996 12.38952129 34.21517261 8 34 C8 40.93 8 47.86 8 55 C5.36 55 2.72 55 0 55 C0 36.85 0 18.7 0 0 Z " fill="#4E4E4E" transform="translate(404,494)"/>
<path d="M0 0 C2.97 0 5.94 0 9 0 C11.31098668 2.74933772 12.48937628 4.80574977 14 8 C14.91909537 9.74107308 15.83851175 11.48198333 16.76296997 13.22021484 C18.4772013 16.46417272 20.14122927 19.73376865 21.8125 23 C22.5120508 24.36084111 23.2119181 25.72151957 23.91210938 27.08203125 C25.6117255 30.38615384 27.30704969 33.69245606 29 37 C30.73750048 34.39374929 32.173084 31.83926131 33.609375 29.0625 C34.37121094 27.59490234 34.37121094 27.59490234 35.1484375 26.09765625 C35.67695313 25.07542969 36.20546875 24.05320312 36.75 23 C40.74417752 15.28260675 44.80812059 7.61206342 49 0 C52.3 0 55.6 0 59 0 C59 18.15 59 36.3 59 55 C56.03 55 53.06 55 50 55 C49.67 42.46 49.34 29.92 49 17 C44.10633722 26.82691676 44.10633722 26.82691676 39.21704102 36.65600586 C38.6044882 37.88403103 37.99178688 39.11198215 37.37890625 40.33984375 C37.06014526 40.98248169 36.74138428 41.62511963 36.41296387 42.28723145 C34.1140718 46.8859282 34.1140718 46.8859282 33 48 C30.32941149 48.14115161 27.67567762 48.04247107 25 48 C24.65743164 47.30962646 24.31486328 46.61925293 23.96191406 45.90795898 C22.39342603 42.75006622 20.82174086 39.59377495 19.25 36.4375 C18.71117187 35.35146484 18.17234375 34.26542969 17.6171875 33.14648438 C17.08867187 32.08623047 16.56015625 31.02597656 16.015625 29.93359375 C15.53383789 28.96478271 15.05205078 27.99597168 14.55566406 26.99780273 C12.79956092 23.61374898 10.89156626 20.31024095 9 17 C8.67 29.54 8.34 42.08 8 55 C5.36 55 2.72 55 0 55 C0 36.85 0 18.7 0 0 Z " fill="#525151" transform="translate(165,494)"/>
<path d="M0 0 C2.97 0 5.94 0 9 0 C14.07908182 10.63322904 18.80369206 21.39182795 23.36401367 32.25708008 C24.45593962 34.85639527 25.55490222 37.45266433 26.65429688 40.04882812 C27.35198045 41.70555322 28.04926192 43.36244772 28.74609375 45.01953125 C29.07411484 45.79335648 29.40213593 46.5671817 29.74009705 47.36445618 C32 52.77038987 32 52.77038987 32 55 C29.36 55 26.72 55 24 55 C23.18501438 53.3970947 22.37310073 51.79262722 21.5625 50.1875 C21.11003906 49.29417969 20.65757812 48.40085937 20.19140625 47.48046875 C19 45 19 45 18 42 C9.09 42 0.18 42 -9 42 C-10.65 46.29 -12.3 50.58 -14 55 C-16.97 55 -19.94 55 -23 55 C-20.9816697 48.71390558 -18.6933113 42.64846655 -16.09375 36.58203125 C-15.7277771 35.72115402 -15.3618042 34.86027679 -14.98474121 33.97331238 C-14.21659139 32.16842853 -13.44675361 30.36426221 -12.67529297 28.56079102 C-11.49942622 25.81115828 -10.3293827 23.05910264 -9.16015625 20.30664062 C-8.40919499 18.54412558 -7.65790423 16.78175088 -6.90625 15.01953125 C-6.55929077 14.20378128 -6.21233154 13.38803131 -5.8548584 12.54756165 C-4.03162689 8.29173412 -2.12279133 4.11806661 0 0 Z " fill="#4F4E4E" transform="translate(264,494)"/>
<path d="M0 0 C10.01850673 4.79145974 16.68082059 12.96079551 22.5625 22.125 C22.99216064 22.78145508 23.42182129 23.43791016 23.86450195 24.11425781 C26.72961222 28.77711855 27.94279785 32.49143304 28 38 C26.84765625 40.22265625 26.84765625 40.22265625 25.0625 42.0625 C21.66059426 45.99723435 19.12750837 49.99715903 16.6875 54.5625 C16.35049072 55.17552979 16.01348145 55.78855957 15.66625977 56.42016602 C13.32935025 60.85150341 12.06546485 65.10535185 11 70 C10.34 70 9.68 70 9 70 C0.10917785 52.78855094 0.10917785 52.78855094 -2 45 C-2.17700439 44.35063477 -2.35400879 43.70126953 -2.53637695 43.03222656 C-4.05698414 36.88628884 -4.34647563 31.00278496 -4.3125 24.6875 C-4.31048584 23.67800293 -4.30847168 22.66850586 -4.30639648 21.62841797 C-4.07019353 4.07019353 -4.07019353 4.07019353 0 0 Z " fill="#FBC1BA" transform="translate(286,198)"/>
<path d="M0 0 C9.18172313 1.67063897 17.6458678 3.77740729 26 8 C26.92554688 8.42667969 27.85109375 8.85335937 28.8046875 9.29296875 C38.25779419 14.71578491 41.32955085 24.04286654 45.4921875 33.6640625 C46.95417008 36.99941674 48.34919487 39.68029183 50.80078125 42.375 C53.30642062 45.3657454 53.57039303 46.55818311 53.3125 50.375 C53.26738281 51.24898438 53.22226562 52.12296875 53.17578125 53.0234375 C53.08876953 54.00183594 53.08876953 54.00183594 53 55 C38.91233569 51.11374778 28.11621393 43.25190085 18 33 C17.31035156 32.3090625 16.62070312 31.618125 15.91015625 30.90625 C9.21266753 23.75444585 0 10.04429929 0 0 Z " fill="#FBB6B6" transform="translate(242,233)"/>
<path d="M0 0 C14.52 0 29.04 0 44 0 C44 2.31 44 4.62 44 7 C38.06 7 32.12 7 26 7 C26 22.84 26 38.68 26 55 C23.36 55 20.72 55 18 55 C18 39.16 18 23.32 18 7 C12.06 7 6.12 7 0 7 C0 4.69 0 2.38 0 0 Z " fill="#4E4E4E" transform="translate(341,494)"/>
<path d="M0 0 C4.021875 -0.0928125 4.021875 -0.0928125 8.125 -0.1875 C8.95789551 -0.21481201 9.79079102 -0.24212402 10.64892578 -0.27026367 C15.50273718 -0.3241177 18.81697656 0.27277043 23 3 C25.44605705 6.66908557 25.83946402 9.73618769 25 14 C22.82425584 16.69105198 21.08934144 18.45532928 18 20 C16.62451844 20.08308638 15.24514204 20.10736016 13.8671875 20.09765625 C13.14128418 20.09515869 12.41538086 20.09266113 11.66748047 20.09008789 C10.74596191 20.08098389 9.82444336 20.07187988 8.875 20.0625 C5.94625 20.041875 3.0175 20.02125 0 20 C0 13.4 0 6.8 0 0 Z " fill="#FAFAFA" transform="translate(412,501)"/>
<path d="M0 0 C2.64 0 5.28 0 8 0 C8 18.15 8 36.3 8 55 C5.36 55 2.72 55 0 55 C0 36.85 0 18.7 0 0 Z " fill="#4D4E4E" transform="translate(467,494)"/>
<path d="M0 0 C2.64 0 5.28 0 8 0 C8 18.15 8 36.3 8 55 C5.36 55 2.72 55 0 55 C0 36.85 0 18.7 0 0 Z " fill="#4B4B4B" transform="translate(314,494)"/>
<path d="M0 0 C2.24609928 2.78954262 3.73156754 5.40285019 5.04296875 8.73046875 C5.39423828 9.61541016 5.74550781 10.50035156 6.10742188 11.41210938 C6.64206055 12.78592773 6.64206055 12.78592773 7.1875 14.1875 C7.55552734 15.11498047 7.92355469 16.04246094 8.30273438 16.99804688 C11 23.8387929 11 23.8387929 11 25 C4.07 25 -2.86 25 -10 25 C-8.08153552 19.24460657 -6.14006985 13.61145444 -3.875 8 C-3.47861328 7.00033203 -3.47861328 7.00033203 -3.07421875 5.98046875 C-1.12683355 1.12683355 -1.12683355 1.12683355 0 0 Z " fill="#F6F6F6" transform="translate(268,503)"/>
<path d="M0 0 C2.64 0 5.28 0 8 0 C8 17.49 8 34.98 8 53 C7.67 53 7.34 53 7 53 C7 36.17 7 19.34 7 2 C5.35 2 3.7 2 2 2 C2 19.49 2 36.98 2 55 C1.34 55 0.68 55 0 55 C0 36.85 0 18.7 0 0 Z " fill="#535353" transform="translate(314,494)"/>
<path d="M0 0 C0.33 0 0.66 0 1 0 C1 5.28 1 10.56 1 16 C-0.32 16.33 -1.64 16.66 -3 17 C-2.01 11.39 -1.02 5.78 0 0 Z " fill="#F7D9C5" transform="translate(442,290)"/>
<path d="M0 0 C4.74018901 1.83491188 9.36413251 3.91941459 14 6 C14 6.33 14 6.66 14 7 C12.56163249 6.88541307 11.12429034 6.75790884 9.6875 6.625 C8.88699219 6.55539062 8.08648437 6.48578125 7.26171875 6.4140625 C5 6 5 6 2 4 C2.33 3.67 2.66 3.34 3 3 C2.01 2.01 1.02 1.02 0 0 Z " fill="#F2BDC7" transform="translate(293,406)"/>
<path d="M0 0 C1.4800841 0.11362262 2.95910074 0.24122908 4.4375 0.375 C5.26121094 0.44460938 6.08492188 0.51421875 6.93359375 0.5859375 C7.95646484 0.79089844 7.95646484 0.79089844 9 1 C9.33 1.66 9.66 2.32 10 3 C9.01 3 8.02 3 7 3 C7 3.66 7 4.32 7 5 C3.34683329 3.75023244 2.21934164 3.32901247 0 0 Z " fill="#F7D2BE" transform="translate(282,310)"/>
</svg>
